<?xml version="1.0" standalone="no"?>
<!DOCTYPE svg PUBLIC "-//W3C//DTD SVG 20010904//EN"
 "http://www.w3.org/TR/2001/REC-SVG-20010904/DTD/svg10.dtd">
<svg version="1.0" xmlns="http://www.w3.org/2000/svg"
 width="1280.000000pt" height="1280.000000pt" viewBox="0 0 1280.000000 1280.000000"
 preserveAspectRatio="xMidYMid meet">

<g transform="translate(0.000000,1280.000000) scale(0.100000,-0.100000)"
fill="#000000" stroke="none">
<path d="M8623 10116 c24 -18 21 -45 -9 -90 -37 -54 -54 -70 -147 -132 -153
-104 -179 -108 -114 -19 45 61 201 217 228 228 12 4 11 6 -1 6 -44 2 -221
-162 -294 -272 -42 -63 -50 -66 -238 -94 -88 -13 -163 -15 -343 -12 -596 11
-685 4 -802 -62 -43 -24 -65 -29 -117 -29 -36 0 -114 -9 -173 -21 -89 -16
-131 -31 -238 -84 -144 -70 -209 -120 -277 -210 -110 -146 -157 -260 -184
-445 -36 -251 -1 -446 124 -691 51 -99 60 -112 152 -212 109 -119 373 -312
557 -406 158 -82 257 -122 661 -265 243 -86 400 -150 419 -169 33 -33 98 -153
140 -259 47 -119 113 -228 164 -272 36 -30 208 -106 242 -106 7 0 17 -4 23 -9
5 -5 34 -16 64 -26 30 -10 60 -21 65 -25 6 -4 53 -24 105 -45 52 -21 140 -60
195 -86 55 -26 147 -68 203 -93 57 -25 129 -61 160 -79 32 -18 82 -46 112 -62
96 -50 178 -105 210 -142 17 -19 29 -37 27 -40 -3 -2 -27 12 -54 33 -78 60
-181 104 -245 106 -73 2 -108 -14 -141 -64 -23 -36 -27 -53 -27 -114 0 -40 9
-109 19 -154 11 -46 17 -96 14 -115 -3 -22 1 -52 11 -79 9 -23 23 -82 31 -130
16 -101 30 -119 84 -110 86 14 216 120 299 242 23 34 42 65 42 67 0 3 9 19 21
37 36 58 13 -7 -43 -117 -61 -120 -97 -174 -186 -280 -89 -107 -513 -528 -571
-568 -25 -17 -57 -42 -71 -55 -33 -31 -66 -48 -143 -74 -96 -32 -324 -36 -535
-9 -137 18 -221 21 -515 22 -194 1 -377 4 -407 8 l-55 7 70 21 c39 12 88 25
110 28 64 11 178 48 207 67 40 28 136 196 168 296 33 102 60 272 60 376 0 69
-20 230 -41 326 -26 122 -112 301 -190 395 -54 65 -158 153 -239 202 -41 24
-81 52 -87 61 -7 8 -16 12 -20 8 -10 -10 42 -55 119 -104 73 -48 202 -173 243
-237 100 -155 169 -345 196 -542 17 -122 -5 -307 -52 -444 -37 -108 -137 -278
-177 -301 -15 -8 -70 -25 -122 -37 -127 -29 -160 -38 -259 -68 -95 -30 -75
-32 -331 39 -203 56 -252 81 -329 164 -73 79 -131 166 -183 274 -20 41 -44 86
-52 100 -27 44 -68 143 -93 225 -91 295 -100 336 -118 555 l-6 75 53 -51 c82
-79 98 -92 173 -142 39 -26 72 -50 75 -53 8 -9 157 -69 173 -69 8 0 22 8 31
19 16 18 16 26 1 137 -31 218 -17 530 30 689 110 375 139 505 140 625 0 97 -2
109 -29 160 -40 77 -73 117 -122 151 -23 16 -48 35 -56 41 -27 26 -95 64 -148
83 -47 17 -80 20 -220 20 -148 -1 -176 -3 -270 -28 -58 -16 -130 -39 -160 -52
-30 -12 -89 -37 -130 -54 -195 -82 -405 -201 -514 -291 -43 -36 -111 -91 -150
-124 -95 -78 -259 -188 -376 -251 -52 -29 -131 -73 -175 -98 -44 -26 -114 -61
-155 -78 -41 -17 -107 -46 -145 -64 -39 -18 -100 -43 -135 -55 -36 -12 -75
-33 -87 -46 -25 -27 -43 -83 -43 -133 0 -51 64 -231 130 -366 71 -145 83 -173
125 -295 64 -185 70 -220 70 -410 0 -155 -3 -182 -22 -235 -47 -130 -116 -295
-173 -410 -98 -199 -250 -517 -250 -522 0 -3 -27 -58 -59 -122 -158 -310 -223
-559 -246 -936 -7 -126 28 -417 67 -545 47 -156 214 -530 280 -628 35 -50 102
-102 133 -102 32 0 142 76 175 122 40 55 49 92 56 238 7 167 41 340 120 610
40 137 42 209 9 301 -86 238 -98 288 -99 414 -1 104 2 126 21 168 12 26 24 47
26 47 8 0 90 -176 126 -270 18 -47 48 -116 66 -155 17 -38 37 -87 44 -107 14
-43 38 -68 45 -47 11 32 29 200 29 264 1 74 -20 166 -52 237 -51 112 -70 187
-77 300 -4 74 -2 133 5 170 21 99 39 90 107 -50 25 -53 82 -169 125 -258 44
-88 79 -164 79 -168 0 -4 18 -45 40 -90 61 -129 67 -159 47 -250 -27 -121 -18
-226 18 -226 23 0 33 24 49 122 13 79 14 106 5 144 -10 37 -9 58 1 98 23 89
17 133 -54 396 -14 52 -42 140 -62 195 -35 94 -37 107 -38 225 -1 102 2 131
17 158 10 17 24 32 32 32 25 0 141 -214 214 -397 21 -54 59 -141 83 -193 25
-52 64 -144 88 -203 42 -107 42 -109 31 -168 -15 -76 -16 -231 -2 -258 10 -18
15 -19 32 -10 51 27 57 84 46 399 l-4 115 -57 120 c-83 173 -147 364 -149 448
-1 50 24 127 45 138 23 13 39 2 70 -50 12 -20 41 -65 64 -101 23 -36 57 -99
77 -140 108 -231 115 -247 215 -536 l56 -161 -41 -84 c-23 -46 -49 -109 -58
-139 -10 -30 -42 -129 -72 -219 -30 -92 -53 -178 -51 -194 l3 -30 30 25 c34
29 125 204 150 288 4 14 11 30 15 35 4 6 21 47 39 92 25 68 31 97 31 163 0 91
-1 89 101 191 75 75 161 116 262 126 71 7 74 -5 18 -68 -21 -24 -64 -83 -95
-131 -31 -48 -61 -90 -66 -93 -6 -4 -10 -11 -10 -17 0 -19 35 20 86 95 60 88
155 207 166 207 34 0 -23 -116 -92 -190 -18 -19 -58 -68 -89 -108 -31 -41 -70
-92 -88 -115 -17 -23 -30 -43 -28 -45 5 -5 87 79 146 150 28 35 60 69 71 76
35 25 138 174 138 199 0 14 -7 41 -16 60 l-17 34 35 37 c19 20 54 64 78 97 24
33 50 66 58 74 7 8 32 39 55 70 59 81 211 228 300 289 42 29 125 73 184 98 59
25 141 61 182 80 83 38 102 40 186 18 48 -13 144 -18 490 -24 299 -5 465 -12
545 -23 63 -9 181 -16 262 -17 139 0 154 2 245 31 131 42 206 96 379 270 76
78 189 192 249 253 228 231 376 428 431 574 30 80 30 125 -1 186 -14 27 -25
58 -25 68 0 98 -65 178 -225 279 -160 100 -579 303 -785 381 -30 11 -59 24
-65 28 -5 5 -30 13 -55 20 -78 20 -198 69 -277 113 -79 44 -111 80 -138 156
-7 21 -25 61 -39 89 -14 28 -26 56 -26 61 0 5 -24 61 -54 123 -72 152 -113
187 -286 248 -52 18 -140 51 -195 73 -55 22 -176 64 -269 93 -92 29 -173 57
-180 62 -6 5 -38 19 -71 32 -93 37 -236 109 -275 138 -19 15 -60 43 -90 63
-154 99 -297 222 -383 328 -107 133 -214 407 -224 575 -10 161 50 411 131 546
55 91 160 197 242 243 169 95 454 172 454 123 0 -8 -4 -17 -10 -21 -5 -3 -13
-21 -18 -39 -24 -85 38 -236 180 -440 133 -190 146 -206 173 -206 38 0 47 21
34 75 -11 42 -10 49 10 73 142 178 160 217 141 308 -14 67 -55 128 -127 191
-78 67 -103 82 -170 103 -109 34 14 49 335 41 396 -9 666 -6 752 11 42 8 81
13 87 11 7 -3 -1 -29 -23 -71 -105 -205 -211 -437 -247 -544 -10 -28 -47 -45
-172 -77 -73 -19 -141 -44 -174 -64 -74 -44 -167 -131 -208 -195 -48 -74 -106
-258 -147 -462 -55 -271 -75 -353 -89 -368 -8 -7 -43 -18 -80 -24 -84 -14
-125 0 -234 81 -43 32 -126 79 -186 106 -112 50 -167 96 -167 140 0 44 75 136
128 156 47 18 113 11 149 -17 43 -32 45 -9 2 32 -27 26 -37 29 -97 29 -76 -1
-120 -19 -165 -69 -35 -38 -77 -118 -77 -146 0 -60 72 -126 224 -205 49 -26
131 -75 182 -110 51 -35 109 -67 129 -71 48 -9 152 4 194 23 35 17 70 77 71
121 0 12 18 102 40 199 22 97 49 226 60 287 36 199 62 256 169 369 53 56 182
126 276 150 33 8 85 25 116 36 54 20 58 25 83 82 14 33 26 65 26 70 0 5 28 69
63 142 35 72 81 170 102 217 22 47 50 102 62 122 13 21 23 41 23 46 0 17 35
40 95 61 201 74 365 230 365 348 0 23 -34 53 -60 53 -12 -1 -12 -3 3 -14z
m-1610 -530 c79 -29 203 -131 237 -196 48 -94 43 -132 -31 -216 -24 -27 -62
-71 -83 -97 -22 -26 -44 -47 -50 -47 -7 0 -20 15 -31 33 -10 17 -40 62 -67 98
-72 100 -123 189 -141 244 -27 88 -27 107 -1 153 24 41 26 42 77 42 29 -1 69
-7 90 -14z m-804 -2015 c123 -38 263 -148 310 -243 25 -49 31 -74 31 -122 -1
-88 -36 -245 -93 -416 -84 -250 -122 -568 -98 -829 7 -73 11 -135 8 -137 -6
-7 -83 32 -122 61 -16 12 -46 30 -65 40 -41 21 -216 188 -235 226 -10 18 -14
78 -15 210 -1 101 -6 220 -10 264 -6 63 -8 38 -7 -115 0 -107 -1 -222 -2 -255
l-2 -60 -40 45 c-22 25 -50 59 -62 77 -12 17 -58 79 -102 137 -186 246 -315
523 -301 648 5 51 43 148 57 148 5 0 9 4 9 10 0 22 -28 -4 -57 -53 -66 -110
-61 -192 21 -415 15 -39 97 -203 121 -241 90 -140 138 -211 144 -211 4 0 15
-15 26 -32 23 -40 73 -107 123 -167 20 -24 42 -51 48 -60 6 -9 16 -86 22 -171
7 -85 23 -204 36 -265 39 -179 139 -462 223 -630 82 -163 101 -192 180 -276
61 -65 163 -115 343 -169 58 -18 116 -35 130 -40 24 -7 22 -9 -25 -30 -197
-86 -384 -190 -426 -237 -14 -15 -41 -42 -60 -58 -41 -36 -162 -181 -209 -250
-19 -27 -64 -91 -102 -141 l-68 -91 -77 -5 c-54 -4 -98 -13 -143 -32 -79 -34
-202 -125 -231 -172 -23 -38 -49 -45 -49 -13 0 12 -23 78 -51 148 -28 69 -70
180 -94 246 -47 129 -175 388 -233 470 -82 116 -107 127 -165 72 -60 -56 -73
-160 -37 -297 33 -129 33 -127 21 -110 -6 8 -23 47 -37 85 -15 39 -31 74 -35
80 -5 5 -9 15 -9 22 0 14 -121 216 -148 246 -8 10 -29 17 -48 17 -28 0 -37 -6
-58 -42 -32 -56 -39 -95 -38 -203 1 -104 20 -193 67 -320 79 -213 105 -306
114 -411 5 -52 3 -70 -5 -67 -7 2 -15 18 -18 36 -4 17 -33 85 -65 152 -58 119
-93 193 -209 437 -54 113 -65 130 -97 145 l-37 18 -27 -31 c-40 -44 -55 -130
-48 -260 6 -105 22 -165 107 -389 32 -83 39 -137 33 -224 -6 -72 -7 -74 -24
-53 -9 12 -44 90 -78 174 -83 211 -125 288 -156 288 -54 0 -105 -122 -105
-248 0 -78 15 -146 61 -272 85 -234 86 -269 23 -465 -96 -301 -114 -394 -114
-595 0 -165 -13 -209 -71 -252 -88 -66 -132 -72 -184 -26 -32 28 -121 183
-149 258 -5 14 -12 27 -16 30 -11 8 -54 122 -107 285 -68 205 -88 334 -88 560
0 226 15 313 112 655 9 30 51 127 94 215 43 88 87 186 99 217 12 32 36 83 54
113 18 30 51 94 72 142 21 48 56 122 77 163 63 124 173 370 205 460 48 132 66
246 58 369 -15 226 -55 352 -236 741 -37 80 -78 178 -90 219 -19 65 -20 79
-10 117 15 53 20 57 95 82 131 43 226 83 365 151 186 90 422 220 480 263 24
18 58 41 75 52 16 10 84 62 150 115 171 139 234 180 396 261 79 40 149 75 154
79 13 9 165 70 275 109 47 17 119 36 160 42 41 7 82 13 90 15 52 10 165 3 219
-14z m3107 -1638 c86 -29 163 -81 214 -146 42 -52 43 -63 18 -147 -18 -58 -92
-163 -154 -219 -64 -57 -149 -111 -176 -111 -19 0 -21 6 -37 111 -14 85 -14
85 7 67 111 -93 291 -1 292 150 0 85 -76 108 -144 44 -68 -64 -128 -102 -142
-91 -7 6 -23 53 -35 105 -27 120 -24 208 10 235 29 24 82 24 147 2z m112 -306
c5 -27 -63 -104 -98 -112 -35 -8 -70 1 -70 18 0 11 18 27 99 89 40 31 64 32
69 5z m-4521 -1639 c-3 -8 -6 -5 -6 6 -1 11 2 17 5 13 3 -3 4 -12 1 -19z m95
-185 c49 -107 68 -173 50 -173 -6 0 -14 14 -17 32 -8 35 -68 187 -91 230 -17
32 -18 44 -1 26 7 -7 33 -59 59 -115z m63 -550 c-3 -13 -10 -23 -16 -23 -12 0
-3 125 10 145 8 13 14 -92 6 -122z m365 47 c0 -12 -20 -73 -44 -138 -24 -64
-60 -161 -80 -216 -45 -120 -68 -166 -74 -148 -2 8 0 24 6 35 6 12 30 81 53
152 39 119 82 237 112 308 14 32 27 35 27 7z m-743 -92 c-8 -93 -17 -138 -28
-138 -13 0 -11 96 3 157 18 77 32 66 25 -19z"/>
<path d="M5892 6800 c0 -14 2 -19 5 -12 2 6 2 18 0 25 -3 6 -5 1 -5 -13z"/>
<path d="M7534 7019 c-29 -11 -73 -38 -98 -60 -56 -49 -132 -164 -158 -237
-13 -38 -37 -72 -83 -120 -81 -83 -86 -108 -7 -29 32 31 61 57 66 57 5 0 27
-17 50 -38 47 -43 195 -126 275 -153 30 -11 78 -19 107 -19 45 0 58 4 82 28
16 16 37 53 47 82 15 45 16 60 6 105 -15 65 -63 140 -104 162 -24 12 -50 14
-114 10 -71 -4 -95 -11 -167 -46 -74 -36 -106 -48 -106 -38 0 5 36 72 55 102
42 67 107 134 148 154 78 38 201 21 246 -33 16 -19 31 -21 31 -3 0 19 -37 51
-87 76 -53 26 -121 27 -189 0z m145 -277 c69 -35 102 -152 61 -219 -24 -40
-56 -43 -151 -13 -107 33 -277 138 -263 162 4 5 27 19 53 30 133 59 236 73
300 40z"/>
</g>
</svg>
